<svg width="46" height="30" viewBox="0 0 46 30" fill="none" xmlns="http://www.w3.org/2000/svg">
<path fill-rule="evenodd" clip-rule="evenodd" d="M18.4741 19.893V8.24741C22.9166 10.1928 26.3572 12.072 30.4265 14.0981C27.0702 15.8302 22.9166 17.7738 18.4741 19.893ZM43.2319 2.45554C42.4656 1.51597 41.1595 0.784605 39.769 0.542472C35.682 -0.179796 10.1846 -0.181851 6.09974 0.542472C4.98468 0.737 3.99177 1.2072 3.13882 1.93775C-0.455119 5.04202 0.67105 21.6892 1.53733 24.3858C1.90161 25.5531 2.37252 26.3948 2.96559 26.9474C3.72969 27.6779 4.77587 28.1809 5.97755 28.4065C9.3427 29.0543 26.6793 29.4165 39.6979 28.5038C40.8974 28.3093 41.9591 27.7901 42.7965 27.0285C46.1194 23.9366 45.8929 6.3545 43.2319 2.45554Z" fill="#7B6B94"/>
</svg>
