<svg width="49" height="30" viewBox="0 0 49 30" fill="none" xmlns="http://www.w3.org/2000/svg">
<path d="M29.671 13.9748C28.775 13.6314 28.775 12.3198 28.7194 11.4064C28.4954 8.15296 29.6154 3.18606 28.2715 1.07435C27.3199 -0.182447 22.7271 -0.0673622 19.928 0.104351C19.1431 0.219436 18.1916 0.389324 17.5196 0.732751C16.8476 1.07618 16.1756 1.64612 16.1756 2.15943C16.1756 2.90109 17.8565 2.78783 18.4711 3.75783C19.1431 4.78628 19.1431 7.01125 19.1431 8.83799C19.1431 10.9497 18.8062 13.7483 17.9676 13.8615C16.6791 13.9182 15.9516 12.6047 15.2796 11.6347C13.9356 9.75136 12.5916 7.40948 11.5828 5.12606C11.0792 3.92772 10.7979 2.61429 10.0703 2.10098C8.95035 1.30087 6.93437 1.24424 4.97395 1.30087C3.18197 1.3575 0.605109 1.12915 0.101563 2.21424C-0.29088 3.41258 0.549558 4.55429 0.997552 5.52611C3.29308 10.6063 5.75704 15.0599 8.7819 19.2833C11.5828 23.2217 14.2134 26.3619 19.3653 28.0169C20.8222 28.4736 27.2052 29.787 28.4937 28.0169C28.9417 27.3319 28.8305 25.7901 29.0545 24.6484C29.2785 23.5067 29.5581 22.365 30.6225 22.3084C31.5185 22.2517 32.0221 23.05 32.583 23.6218C33.1994 24.2502 33.7029 24.7635 34.1509 25.3353C35.2154 26.4204 36.3354 27.9037 37.6793 28.4754C39.5269 29.2755 42.3833 29.0472 45.0712 28.9321C47.2557 28.8755 48.8236 28.4188 48.9921 27.1054C49.105 26.0769 47.9832 24.5936 47.3112 23.7369C45.6303 21.6252 44.8472 20.9968 42.9424 19.0549C42.1019 18.1982 41.0375 17.2848 41.0375 16.2582C40.9819 15.6298 41.4855 15.0599 41.9335 14.4315C43.8939 11.463 45.8543 9.35131 47.6463 6.26777C48.1499 5.3544 49.3272 3.24269 48.8792 2.21424C48.3756 1.07252 45.5748 1.41412 43.8384 1.41412C41.5984 1.41412 38.6864 1.24241 38.1255 1.69909C37.0611 2.44075 36.6131 3.64092 36.1096 4.78263C34.9896 7.40948 33.4771 10.0911 31.9092 12.0896C31.3483 12.7746 30.2856 14.2013 29.6692 13.973L29.671 13.9748Z" fill="#7B6B94"/>
</svg>
